<svg version="1.1" id="Layer_1" xmlns="http://www.w3.org/2000/svg" xmlns:xlink="http://www.w3.org/1999/xlink" x="0px" y="0px"
	 width="100%" viewBox="0 0 368 480" enable-background="new 0 0 368 480" xml:space="preserve">
<path fill="none" opacity="1.000000" stroke="#000000" stroke-linecap="round" stroke-linejoin="round" stroke-width="3.000000"
	d="
M107.000000,6.000000 
	C100.691673,8.341979 98.893227,12.949043 98.899132,19.500092 
	C99.030807,165.499969 99.000000,311.500000 99.000000,457.500000 
	C99.000000,464.948303 101.434715,469.330811 106.500000,471.000000 
	C110.931488,472.460358 116.046860,469.889008 119.988075,463.992035 
	C136.349777,439.510986 152.674362,415.005127 168.994720,390.496490 
	C173.196518,384.186554 177.288284,377.803101 181.512497,371.508362 
	C185.852539,365.040985 190.657471,365.004700 194.983139,371.511200 
	C215.354340,402.152679 235.642380,432.849548 256.055145,463.463226 
	C257.402710,465.484131 258.701904,467.558990 260.938110,469.090363 
	C267.610413,473.659454 276.698730,469.719208 277.980530,460.997131 
	C278.124390,460.018280 278.000000,459.000000 278.000000,458.000000 
	C278.000000,311.666656 278.000000,165.333328 278.000000,19.000000 
	C278.000000,10.026446 273.973541,5.999999 265.000000,5.999999 
	C212.500000,6.000000 160.000000,6.000000 107.500000,6.000000 
"/>
</svg>